<?xml version="1.0" encoding="UTF-8" standalone="no"?>
<!-- Created with Inkscape (http://www.inkscape.org/) -->

<svg
   width="832.5mm"
   height="677.8446mm"
   viewBox="0 0 832.5 677.8446"
   version="1.1"
   id="svg168"
   inkscape:version="1.1.1 (3bf5ae0d25, 2021-09-20)"
   sodipodi:docname="dibujo logo pagina web.svg"
   xmlns:inkscape="http://www.inkscape.org/namespaces/inkscape"
   xmlns:sodipodi="http://sodipodi.sourceforge.net/DTD/sodipodi-0.dtd"
   xmlns="http://www.w3.org/2000/svg"
   xmlns:svg="http://www.w3.org/2000/svg">
  <sodipodi:namedview
     id="namedview170"
     pagecolor="#505050"
     bordercolor="#eeeeee"
     borderopacity="1"
     inkscape:pageshadow="0"
     inkscape:pageopacity="0"
     inkscape:pagecheckerboard="0"
     inkscape:document-units="px"
     showgrid="false"
     width="832mm"
     inkscape:zoom="0.15"
     inkscape:cx="1850"
     inkscape:cy="1170"
     inkscape:window-width="1366"
     inkscape:window-height="705"
     inkscape:window-x="-8"
     inkscape:window-y="-8"
     inkscape:window-maximized="1"
     inkscape:current-layer="layer1" />
  <defs
     id="defs165" />
  <g
     inkscape:label="Layer 1"
     inkscape:groupmode="layer"
     id="layer1">
    <path
       style="fill:#c2002b;fill-opacity:1;stroke:#c7733b;stroke-width:1.43065px;stroke-linecap:butt;stroke-linejoin:miter;stroke-opacity:1"
       d="m 100.42087,355.35971 -0.508578,-5.64648 -8.39166,-4.10653 -3.05153,-29.7723 -32.29524,-30.79904 58.487428,25.66583 -46.281338,-104.20325 51.875798,74.94421 7.37448,4.61988 -8.39167,-11.29301 3.05152,-5.64648 -7.12021,-3.59321 1.27147,-10.26634 -5.59445,6.15981 -2.37066,-15.47316 7.37231,-5.8075 -2.87701,-7.44092 -10.33921,5.08159 -5.124638,-31.21536 -13.66575,-34.84511 14.38498,7.62238 4.315498,19.23736 4.3155,-0.3626 2.33756,7.62239 0.71926,-15.60768 5.03475,4.71859 -0.53946,-9.80019 -9.17042,-10.16316 -1.07887,-10.5261 5.754,1.81481 3.41642,7.62238 4.1357,-1.45189 5.21456,6.53348 v 15.60768 l 17.6216,21.41524 3.23663,-5.08159 -7.73194,-12.70396 -0.89905,-67.14937 13.12629,79.49035 0.35962,-14.51877 4.85493,-15.24478 3.59625,25.77085 2.51737,-5.4445 7.55213,6.17051 -5.03475,-11.61508 4.49531,-4.35559 -1.07887,-14.5188 4.31549,11.25208 8.09156,1.8148 1.97794,12.34099 4.31549,-7.25939 -1.97793,-7.62238 1.25868,-8.71129 -2.69718,-5.44448 0.17982,-7.98538 4.67513,7.25938 3.41643,-8.34829 -7.91174,-16.69656 -0.17983,-80.216267 10.96856,79.490257 h 5.39437 l -0.53944,13.42989 h 3.77607 l 1.79812,17.42255 0.53944,-22.14114 1.97793,-1.0889 -0.89907,-8.71128 3.77607,10.88907 16.72253,-39.56363 -9.35023,68.96418 5.21455,-18.87437 5.93379,10.52607 1.25868,-12.34096 10.96857,-6.5334 6.29345,6.89637 v 6.89641 l 5.9338,1.45189 -3.41646,-11.61499 4.49532,-9.07427 3.23664,-1.08889 -3.77607,-14.1558 3.41643,1.08891 8.81082,-1.81488 5.03473,5.8075 0.71925,11.97805 4.13568,2.9037 0.35964,19.23737 6.83285,-20.32626 0.53947,14.15577 8.99061,-3.99259 0.89905,8.71127 5.9338,-8.71127 2.87702,2.9037 5.39438,-11.97799 5.21454,-2.17779 v -3.9927 l 16.72254,18.51148 -16.00329,-134.661682 31.10753,136.476492 7.37231,-23.95598 9.53004,-12.34097 1.61834,56.98629 3.95587,-38.47482 2.87698,15.24475 16.54276,-35.57103 -6.83289,51.90462 2.15777,4.71858 v 17.42257 l 7.01267,-6.8964 -1.6183,13.42988 3.77603,-4.35567 3.23664,2.54078 -3.05681,-14.51877 3.41642,-16.69657 3.77607,9.43719 5.21459,-2.17781 1.9779,6.8964 5.21458,-0.72598 1.43848,10.16316 2.33755,-5.08159 -8.09153,-137.202442 23.3756,135.024652 2.51737,1.4519 4.49534,-6.17049 3.23659,6.17049 1.25869,-9.07429 -0.18002,-4.35559 h 2.3376 l 2.33755,5.08159 3.59625,-4.35567 -9.35025,-89.290457 19.77934,75.860567 2.69721,0.72598 1.43851,-13.06689 4.13568,-11.25207 -4.67511,-8.34827 11.8676,-2.17781 0.17964,5.0816 h 4.31549 l 2.15778,12.34096 3.41641,3.99262 -1.43847,16.69664 1.79809,2.5408 7.91178,-28.31164 0.89905,23.23005 5.57419,-7.2594 -1.25869,-9.80018 2.15773,-2.17779 4.31551,8.34828 2.51738,-23.23005 1.97794,20.32626 6.11359,-16.69655 3.05685,2.17779 11.86761,-62.067777 -5.5742,77.312467 3.59625,1.45188 3.41642,9.07427 2.33759,-9.07427 13.84555,2.54078 0.71926,15.97069 1.6183,-1.45189 3.59625,2.90379 6.29341,-17.42259 1.97795,17.05958 0.53943,-8.34828 4.85493,-0.36261 2.87698,-10.52608 3.95591,-6.89648 1.6183,26.85974 12.22725,23.59306 -6.11363,-43.55632 0.89908,-20.68928 3.77603,10.5261 3.23663,-1.8149 7.73193,21.77824 5.57419,-2.54078 5.75402,22.50407 7.37228,-2.17779 -2.33756,-14.5188 5.57419,1.45192 3.95586,-6.89649 -1.79813,-7.62229 8.2714,-7.25939 14.02534,-115.424327 2.51738,120.868827 3.05681,2.17779 v 9.80018 l 2.87699,-6.89638 3.9559,5.44449 v -10.52608 l 7.91174,-4.35562 -0.35965,-13.42985 6.47327,-3.9927 7.5521,19.23737 -0.35964,7.62239 4.3155,0.72597 23.19578,-78.401427 -14.20517,80.942227 7.1925,-3.26677 4.3155,-12.7039 4.49529,-4.3556 1.43851,5.44451 4.67511,-10.5261 0.89908,11.615 1.43847,1.81489 -0.71925,9.07418 5.03476,5.44459 1.07887,17.42248 3.95589,-8.71122 3.41643,-26.49682 6.65306,26.85974 10.06947,-22.14115 -7.91171,38.83781 4.13568,-0.36338 13.84555,-30.85242 -8.09157,39.92662 3.05681,13.06689 15.46385,-51.90462 -9.35022,49.36381 10.42913,0.726 -11.32821,13.79286 8.27139,5.08158 -1.79812,7.2594 -6.65306,4.7186 32.36621,-2.54081 -28.94978,13.79288 12.22725,5.80748 -0.53944,7.98538 -2.87698,5.44451 3.41642,4.35568 -5.21459,12.34089 1.2587,4.35568 25.35353,3.62968 -25.89297,10.88909 -6.29341,21.41518 -4.49533,2.17779 5.21455,9.80018 7.0127,45.73421 -21.21787,-52.99359 v 8.71127 l -4.31549,8.71129 -4.31551,-1.81489 -1.25868,5.44459 7.19253,14.88177 4.49528,0.36261 4.67512,15.60775 -8.27136,4.35559 -2.69721,-6.89639 -3.41642,14.51877 -6.83288,-11.25206 -3.59625,11.61497 6.29345,3.9927 0.35965,14.15585 4.13572,2.54079 -1.43852,9.43721 12.94648,10.52607 2.51736,17.42256 7.73193,32.66725 -12.04738,-28.31164 -5.21459,4.71859 -2.33755,-9.43718 -3.23664,6.89647 -8.99061,-11.25208 -2.15773,1.8148 4.31549,11.25208 8.63098,6.53348 -11.68779,11.61499 -5.9338,3.6297 -1.25869,-2.5408 -7.37231,1.08891 -0.35966,5.44457 5.03477,0.36339 10.96856,29.76344 -14.74463,-14.51878 9.35026,66.78639 -20.67843,-66.06047 -4.49529,8.71129 -7.19253,-7.2594 -5.21455,5.08159 -3.23662,-10.52609 -2.15775,7.98529 -7.5521,-7.25938 -4.85493,5.08159 -0.53947,14.88176 -0.89904,11.25206 -6.11362,6.53343 4.49528,12.70396 -11.68779,50.08981 -1.07885,-27.94874 -5.57419,-2.17772 1.07885,-11.97806 -5.75398,-13.42987 1.79813,-7.6223 -2.51738,-1.08897 -3.59624,5.08156 1.43847,34.11914 -12.94646,-30.12644 1.43851,-9.80018 h -4.31551 l -5.03476,-8.71129 1.97795,-12.34097 h -3.41646 l -2.33756,-6.8964 -4.13568,9.80018 -2.69717,-10.16317 -4.13568,5.08158 -2.69719,-5.80748 -10.24931,14.51878 18.88027,67.51236 -25.53332,-51.54169 -3.23664,-1.81489 -1.79812,-3.26671 v 12.70388 l -3.77607,-1.08889 -0.35965,8.34829 -9.8897,-2.1778 -0.17963,11.97798 -7.73193,-4.35561 -0.35964,-3.99268 -4.13568,-2.1778 -1.6183,6.53348 h -5.3944 l -2.877,6.17049 -0.17962,8.34828 -11.68783,26.13385 4.4953,-32.30433 -6.1136,-3.6297 -1.07887,32.66724 -6.47327,-26.85973 -5.75398,0.72598 -0.53947,-9.80019 -5.75397,-2.90379 1.07887,-11.97798 -5.75398,-0.3626 -0.35966,-9.80017 -3.77602,6.17048 -5.75402,-12.7039 -5.9338,6.8964 -3.05681,7.62231 -3.77607,1.08897 1.43851,7.25938 -2.33755,30.12647 -4.31551,1.8148 2.69717,7.98538 -5.21455,0.72597 -11.14834,22.50407 3.2366,-36.29693 -0.71926,-9.07428 0.53947,-6.17049 -5.75402,-3.26669 -1.43851,-9.43719 -7.19249,-12.34096 -0.35965,14.51877 -4.3155,4.35559 -6.11363,7.25939 -5.39436,42.83041 -3.95586,-40.65253 -3.95589,-5.80757 -1.79812,13.79286 -8.99062,8.71128 -6.11363,-10.88907 v -12.34098 h -0.71926 l -3.95585,7.2594 -7.19249,-8.7113 -4.31551,-7.25937 -0.35964,-7.2594 -2.51734,5.08159 -14.38499,10.16317 -1.79812,-7.98536 -2.51737,3.62968 -2.51738,-3.62968 -7.55211,3.62968 -2.51738,-9.43719 -21.57751,27.58566 13.66577,-49.36381 -8.63102,-5.08159 -12.58685,7.98529 v -13.7928 h -9.70987 l -2.15766,9.43682 -8.27136,-4.35568 -6.83287,4.35568 -2.877,-7.2594 -6.47323,15.24469 -8.631,-4.3556 -6.11364,2.17779 1.43851,12.34099 -8.27135,26.85974 -3.59628,-22.50415 -4.67511,-1.45189 -0.71926,-7.25931 -4.13568,0.72599 -1.97791,11.615 -3.41646,-9.80013 -1.25869,8.71122 -4.85493,-10.52609 -9.53006,7.62238 -1.9779,-2.90379 -4.13572,1.81482 -3.77602,-7.62232 0.71925,69.69017 -10.6089,-63.15669 h -10.78876 l -3.23663,-7.25946 -9.35024,22.50415 0.35962,-25.77085 -9.35025,10.52616 2.69718,7.62232 1.07887,11.61505 -4.85493,17.78547 -1.25868,-12.70388 -6.47325,-0.36261 -2.51737,-7.62238 -4.67512,4.71859 -0.53944,6.17049 -4.49531,1.08891 3.23662,11.97806 -2.51736,2.54072 -1.97794,-9.80019 -3.23664,7.25947 2.33757,13.4298 -4.67512,19.23744 -1.25869,-11.97807 -2.51737,7.25948 -1.07888,-10.16318 -2.15774,1.08889 -0.35961,-9.07418 -3.77606,-8.34838 -2.33756,6.89648 -2.69718,-4.71867 5.75397,-14.15577 -7.55211,-12.34099 -4.67511,-7.25938 -2.51738,1.4519 -2.877,-6.17049 -13.66575,-3.9927 2.33757,-11.25199 -6.29343,1.8148 -3.77607,-9.07426 -33.085458,60.25297 29.848848,-88.92754 -13.126308,13.42988 4.3155,-25.77084 -23.73524,-39.56365 23.91505,-10.16317 4.315488,-6.53348 -12.227228,-25.40784 -7.73193,-20.68928 7.55211,-5.0816 -8.81081,-9.80018 7.01269,-1.08889 -4.67512,-12.70388 13.84555,-8.34838 z"
       id="path36-8" />
    <path
       style="fill:#1c003d;fill-opacity:1;stroke:#4100fd;stroke-width:1.43065px;stroke-linecap:butt;stroke-linejoin:miter;stroke-opacity:1"
       d="m 123.05296,512.94791 7.62881,23.61254 12.71465,-17.45275 6.61162,17.45275 17.80052,15.39948 1.01717,-46.19852 12.20607,13.34629 5.08586,-17.45275 8.64596,-6.1598 4.32298,7.18639 2.79723,20.5327 13.98611,-1.54002 1.78007,6.67316 9.91739,-7.69975 6.86592,0.5132 5.08583,-20.53271 h 4.06869 l 9.66314,27.20576 1.78009,-32.85223 3.8144,7.18641 4.83153,-5.64648 7.88312,23.09923 5.34013,-28.23235 4.83157,10.7796 4.57727,-8.72635 13.98614,15.91283 8.64596,-17.45276 5.84874,4.6198 5.59444,-18.99268 7.62879,23.09922 5.08586,-22.58589 h 6.86593 l 0.50856,-15.91282 4.5773,-3.59326 1.27144,17.45281 3.81443,3.07987 -1.78007,11.29296 11.44321,19.50601 0.25423,20.01936 17.54622,1.53993 2.03436,-9.753 1.27148,24.63921 7.12018,-22.58595 3.81442,11.29303 12.71463,-11.29303 10.42604,31.82564 1.27148,-37.98545 11.18888,9.75302 6.3573,24.63922 3.30583,-29.77236 10.42601,8.72641 7.37453,-15.39948 18.81766,50.81832 -9.15454,-49.27839 h 6.35732 l 10.93461,17.45275 1.01717,-32.85223 12.96892,18.99268 6.86593,-29.25902 -0.76288,-13.34623 11.18892,7.18641 2.79721,-25.66582 4.83157,4.61987 -1.01717,8.213 1.27148,15.39956 -6.86591,28.74569 23.39496,4.61989 2.54292,-3.07996 2.79722,14.88623 12.20606,-5.64654 4.06869,14.88623 10.68031,-31.31233 5.08587,12.31963 12.20606,-18.47942 11.69748,1.53993 7.62879,-13.85955 2.79725,-16.9394 8.39166,24.63913 v -37.47203 l 7.62879,21.04596 3.30582,45.17184 11.69749,-12.31961 8.90027,24.63917 11.95175,-51.33158 18.8177,1.02659 -6.86592,-19.50603 30.76945,26.17917 -15.25757,-33.87891 11.69748,-10.77968 11.69749,14.37288 -14.49471,-33.36557 8.64597,-3.59321 25.93789,21.04596 -25.17502,-32.85223 3.56009,-13.34621 -17.29193,-19.50602 4.323,-18.99269 7.12019,8.21299 7.12022,-10.7796 8.13739,-2.56661 0.25423,-8.21307 10.42601,-5.64648 -3.05152,-20.53262 16.52905,-3.59321 -5.34018,-18.99277 4.83157,-7.69972 -1.78004,-18.47935 8.13739,-20.01936 -10.426,-29.25904 -9.10213,11.05825 -0.18001,-23.95604 -13.21619,5.08159 -11.77772,-30.67089 -1.5284,26.31528 -3.14675,-15.42621 -2.42744,14.51877 -2.51739,-9.07426 -12.49695,-7.98529 -7.64204,13.2484 -12.31715,-30.48944 -5.84391,22.50406 -4.58517,-9.61872 -6.6531,16.15221 -3.14671,-17.78555 -6.20351,5.98904 -3.05682,-35.02659 -7.28239,22.3226 1.43848,5.80758 -5.30443,1.81482 1.70819,25.04493 -11.68783,7.98529 -3.41642,-19.96334 -8.45117,2.17787 -5.39438,-14.51886 -6.11362,-23.59295 0.35964,41.74151 5.21455,11.25198 -0.17963,7.98538 -11.14835,-9.07426 0.71925,26.13382 -14.5648,-56.62327 -4.85494,21.41523 -3.41645,-12.34096 -16.54271,15.97067 -14.56481,-20.68926 -5.75402,15.97067 -5.39438,-3.6297 0.53945,-22.14116 -5.21455,-19.60036 -11.32817,19.23737 1.07887,16.69658 -4.31551,-6.5334 -6.11362,14.88178 -5.39437,-9.80018 -12.58686,2.17777 -0.53944,-11.61505 -3.77606,-3.99261 2.87698,-11.97805 -5.39436,-14.1558 -2.51735,16.33367 -3.05681,3.2667 -0.18001,14.88177 -2.87699,15.24467 -3.23664,0.726 -2.51738,6.53348 -5.75398,-5.4446 -10.2493,11.61508 -8.63101,-9.07427 -10.96856,-22.86706 2.33756,22.14115 5.21459,17.78548 -4.67516,0.72597 -5.39437,12.34099 -2.33755,-13.42988 -5.75398,-3.99262 -5.03476,-24.31901 1.2587,38.11181 -3.95587,7.98537 0.71923,18.14848 -6.11363,-5.80757 2.6972,-35.20805 -15.28406,6.17048 -4.49529,-10.88907 -6.83289,-2.54071 -1.97794,-17.42257 -5.75398,13.06688 -6.47327,-3.99268 -3.59625,-45.73412 -9.53004,37.74883 -9.53005,-30.12653 -5.03476,26.49683 -1.43847,-15.24475 -4.85494,15.97067 -5.03476,-28.67458 -14.5648,35.20806 -15.82351,-19.23739 -5.9338,18.51139 -4.67511,-17.78547 -5.21455,10.88907 -10.78873,-42.8304 -5.39437,39.20073 -4.13572,11.97796 -16.90236,-31.94134 -3.2366,30.48945 -2.69721,-6.8964 -2.69715,12.34098 -5.93383,-13.42987 -6.65302,9.80018 -12.40706,-9.07427 0.17983,7.98538 -7.1925,-23.23007 -3.41643,39.92662 -2.33756,-2.54078 -6.11362,14.88177 -16.00331,-2.9038 -4.13568,17.42257 1.07887,14.51878 -14.92442,-19.60036 0.35961,14.15585 -21.03804,-10.16318 9.17043,28.67464 -4.67513,42.10442 -5.93381,0.72601 1.07888,18.87436 -19.23993,-10.16309 6.29344,42.10443 -9.53006,21.41525 0.71925,15.97068 -9.170418,2.17779 10.608918,25.04487 -6.832858,22.86715 -0.17983,26.13376 10.429118,6.17049 1.43849,23.95596 z"
       id="path34-7" />
    <path
       style="fill:none;fill-opacity:1;stroke:#027afd;stroke-width:11.7065;stroke-linecap:butt;stroke-linejoin:miter;stroke-miterlimit:4;stroke-dasharray:none;stroke-opacity:1"
       d="m 456.28397,464.90222 c 10.77827,21.32489 48.45426,-4.57985 58.0879,-30.30814 15.00555,-40.07475 34.33258,-99.70285 29.82191,-111.52105 10.05434,-51.21472 -9.40209,-61.06484 -15.17932,-65.21794"
       id="path905-7-4-8"
       sodipodi:nodetypes="cscc" />
    <path
       style="fill:none;fill-opacity:1;stroke:#4100fd;stroke-width:11.7065;stroke-linecap:butt;stroke-linejoin:miter;stroke-miterlimit:4;stroke-dasharray:none;stroke-opacity:1"
       d="m 115.84852,435.38606 c 1.97123,13.45529 3.96002,37.07117 10.94589,47.23396 9.51071,13.83581 24.06369,11.7027 34.93445,8.19479 10.87076,-3.50793 27.92626,-13.9655 37.15235,-26.61813 9.2261,-12.65267 21.44184,-30.85866 25.79266,-49.30106 4.35085,-18.44247 4.58025,-28.35182 4.39255,-43.24996 -0.11604,-9.21179 9.32423,-14.36575 9.32423,-14.36575 0,0 10.71049,-0.57849 14.20517,-3.44824 0,0 6.50497,0.21358 11.50799,-1.45189 5.00302,-1.66523 10.96856,-2.54071 10.96856,-2.54071 0,0 41.399,-0.20666 55.56202,-2.90378 14.163,-2.69699 21.04897,-3.53704 27.87093,-10.52609 6.82196,-6.98904 9.86937,-12.83833 12.04742,-20.8708 3.79347,-13.99022 2.17099,-22.77097 3.32653,-35.57095 1.15556,-12.80007 -12.13522,-47.11542 -17.80174,-48.7182"
       id="path905-0"
       sodipodi:nodetypes="cazzzscszczzszc" />
    <path
       style="fill:#ff2d2e;fill-opacity:1;stroke:#000000;stroke-width:1.43065px;stroke-linecap:butt;stroke-linejoin:miter;stroke-opacity:0.967872"
       d="m 184.61882,256.97308 c 8.07539,47.29135 19.43556,178.14455 -36.44988,145.45203 -55.885438,-32.69252 -40.93408,91.24023 -1.357,87.5418 39.57708,-3.69846 86.38312,-65.02689 82.6013,-127.50939 15.85452,-14.40314 62.22491,-13.48171 101.2344,-15.97058 43.26463,-8.16898 43.1629,-48.69161 46.03194,-61.34188 10.72944,-64.10868 -30.79819,-63.82144 -40.27796,-66.78645 -9.47978,-2.96495 -159.85819,-8.67686 -151.7828,38.61447 z"
       id="path24-2"
       sodipodi:nodetypes="zzzccczz" />
    <path
       style="fill:none;fill-opacity:1;stroke:#027afd;stroke-width:11.7065;stroke-linecap:butt;stroke-linejoin:miter;stroke-miterlimit:4;stroke-dasharray:none;stroke-opacity:1"
       d="m 218.21453,449.25045 c 1.9712,13.4553 -5.3382,24.04316 -2.06232,32.9021 5.00339,13.53057 13.89197,11.70265 24.76276,8.19471 10.8707,-3.50793 23.91921,-18.92255 36.45115,-22.33552 12.53191,-3.41297 35.62903,5.5456 51.53793,-4.97965 10.95076,-7.24494 25.8191,-25.73797 32.11701,-45.21894 4.87933,-15.09302 -1.07571,-39.68081 -1.07571,-39.68081"
       id="path905-6-0"
       sodipodi:nodetypes="cazzssc" />
    <path
       style="fill:#ff2d2e;fill-opacity:1;stroke:#000000;stroke-width:1.43065px;stroke-linecap:butt;stroke-linejoin:miter;stroke-opacity:1"
       d="m 286.25859,395.13545 c 38.45155,-58.35321 72.66156,-40.36722 78.4418,-25.28333 5.78027,15.08399 -8.13066,88.04707 -51.63258,88.56464 -43.50193,0.51779 -54.05452,8.56247 -62.67696,20.66352 -8.62244,12.10106 -33.53705,13.05221 -36.26782,-7.68468 -2.73076,-20.73689 14.76555,-64.71551 28.98057,-92.2308 13.78256,-21.51758 23.79636,-20.07045 33.80472,-18.8744 10.00837,1.19607 12.02467,13.38578 9.35027,34.84505 z"
       id="path26-4"
       sodipodi:nodetypes="czzzzczc" />
    <path
       style="fill:none;fill-opacity:1;stroke:#027afd;stroke-width:10.2036;stroke-linecap:butt;stroke-linejoin:miter;stroke-miterlimit:4;stroke-dasharray:none;stroke-opacity:1"
       d="m 531.17923,441.27475 c 1.48739,13.54703 -4.70239,21.56667 -2.04424,30.1909 6.59144,21.38545 26.40128,24.38265 35.51022,23.89973 9.10893,-0.48322 24.06388,-15.18223 28.75398,-20.30506 4.69011,-5.12285 13.26535,-18.77903 13.26535,-18.77903 5.77389,-9.24621 12.95127,-28.16568 12.95127,-28.16568 l 10.78185,-29.67995 c 0,0 6.46932,-22.12196 8.19862,-28.57747 1.67341,-6.24692 12.22958,-14.53705 16.41173,-16.94456 4.18215,-2.40749 17.98032,-1.01599 17.98032,-1.01599 0,0 15.48485,-1.46149 22.24307,-3.72404 6.75825,-2.26261 12.74213,-6.90007 17.89442,-13.91225 5.15228,-7.01217 6.58264,-9.93255 10.397,-17.65432 4.76569,-9.64778 8.29423,-14.44979 10.70124,-29.14029 2.33447,-14.24765 -7.37353,-24.34207 -9.20705,-39.11168"
       id="path905-2-2"
       sodipodi:nodetypes="cazzcccszczzssc" />
    <path
       style="fill:#ff2d2e;fill-opacity:1;stroke:#000000;stroke-width:1.43065px;stroke-linecap:butt;stroke-linejoin:miter;stroke-opacity:1"
       d="m 540.95582,484.72667 c -6.19894,0.15672 -24.8505,-16.70065 -11.86761,-79.12735 35.0249,-126.67805 66.48111,-168.35297 96.73908,-181.48477 58.40262,-21.04257 87.91171,-9.40108 101.77378,14.51878 13.86207,23.91979 1.52421,67.54862 -15.10424,90.01644 -16.62846,22.4678 -28.28645,17.04613 -49.26857,16.69657 -20.98214,-0.34955 -24.16523,13.91617 -35.9625,52.2676 -11.79727,38.35151 -40.63655,105.06746 -86.30994,87.11273 z"
       id="path30-5"
       sodipodi:nodetypes="ccczzzzc" />
    <path
       style="fill:#00d5ff;fill-opacity:1;stroke:#000000;stroke-width:1.43065px;stroke-linecap:butt;stroke-linejoin:miter;stroke-opacity:1"
       d="m 653.30769,401.84502 c 6.67384,-12.55662 6.60968,-22.81997 16.00329,-33.93768 9.3936,-11.11772 12.9553,-1.14567 12.76668,4.90012 -0.18877,6.04582 -6.22807,21.19016 -3.23659,29.76354 2.99146,8.57338 7.00296,3.761 10.6988,5.8075 3.69585,2.04651 -1.22851,25.81348 -7.82182,32.66725 -6.59331,6.85375 -8.06364,3.73586 -10.33919,4.90011 -2.27553,1.16428 -10.63529,7.94897 -14.47492,18.32993 0,0 -5.28206,17.46727 -9.39388,21.69013 -4.11182,4.22286 -14.22301,8.34575 -13.3678,-2.47096 0.85515,-10.81672 3.78509,-19.98916 3.78509,-19.98916 1.54214,-6.94558 -0.6017,-12.50793 -4.56604,-16.6965 -2.12874,-2.24918 -12.72346,0.66835 -5.94659,-21.00823 6.77685,-21.67638 13.79336,-16.72293 15.46385,-16.69659 5.21169,0.0822 7.43629,-4.1424 10.42912,-7.25946 z"
       id="path32-7"
       sodipodi:nodetypes="czzzzzzczzsszsc" />
    <path
       style="fill:none;fill-opacity:1;stroke:#027afd;stroke-width:11.7065;stroke-linecap:butt;stroke-linejoin:miter;stroke-miterlimit:4;stroke-dasharray:none;stroke-opacity:1"
       d="m 369.4227,423.77084 c 3.40626,19.77313 -7.02684,49.4043 9.68871,59.61887 16.71557,10.21466 42.18066,-7.74069 51.73057,-31.84814 3.21579,-8.11783 19.83785,-49.9112 19.65015,-64.80932"
       id="path905-7-43"
       sodipodi:nodetypes="czsc" />
    <path
       style="fill:#ff2d2e;fill-opacity:1;stroke:#000000;stroke-width:1.93313px;stroke-linecap:butt;stroke-linejoin:miter;stroke-opacity:1"
       d="m 454.15997,383.23 c -12.32233,42.21905 -33.93211,109.03777 -70.71548,96.58341 -36.78337,-12.45437 -10.34761,-103.08837 12.17043,-160.88884 22.51807,-57.80045 53.96554,-87.60894 113.27877,-77.38962 37.82406,10.45213 46.43204,52.68247 24.34087,128.30381 -14.97176,52.77995 -47.09822,120.47077 -70.98969,105.53093 -23.89143,-14.93992 -11.70227,-62.81358 -8.0849,-92.13969 z"
       id="path1041-8-4"
       sodipodi:nodetypes="czzcczc" />
    <path
       style="fill:none;stroke:#000000;stroke-width:2.39085px;stroke-linecap:butt;stroke-linejoin:miter;stroke-opacity:1"
       d="m 446.04929,357.62531 c 0.79944,12.86729 8.48547,11.16103 13.7354,9.56802 5.25006,-1.59317 15.98254,-7.30323 15.33571,-21.52816 -0.64686,-14.22493 -10.14761,-13.07964 -15.46902,-10.9348 -5.32138,2.14468 -14.40154,10.02757 -13.60209,22.89494 z"
       id="path1072-7"
       sodipodi:nodetypes="zzzzz" />
    <path
       style="fill:#0080ec;fill-opacity:1;stroke:#027afd;stroke-width:1.32311px;stroke-linecap:butt;stroke-linejoin:miter;stroke-opacity:1"
       d="m 266.44745,398.47246 c -4.75557,5.48645 -5.29503,47.89962 3.82657,45.03549 9.1217,-2.86423 43.51639,-15.14198 40.38583,-27.99497 -3.13054,-12.85302 -20.23643,-2.84963 -25.76415,-2.4344 -5.45836,0.41023 -13.20002,-20.66083 -18.44825,-14.60612 z"
       id="path40-8-9"
       sodipodi:nodetypes="szzss" />
    <path
       style="fill:#0080ec;fill-opacity:1;stroke:#027afd;stroke-width:2.39085px;stroke-linecap:butt;stroke-linejoin:miter;stroke-opacity:1"
       d="m 446.04929,357.62531 c 0.79944,12.86729 8.48547,11.16103 13.7354,9.56802 5.25006,-1.59317 15.98254,-7.30323 15.33571,-21.52816 -0.64686,-14.22493 -10.14761,-13.07964 -15.46902,-10.9348 -5.32138,2.14468 -14.40154,10.02757 -13.60209,22.89494 z"
       id="path1072-6-3"
       sodipodi:nodetypes="zzzzz" />
    <path
       style="fill:#0080ec;fill-opacity:1;stroke:#09faff;stroke-width:1.43065px;stroke-linecap:butt;stroke-linejoin:miter;stroke-opacity:0"
       d="m 673.84048,311.28543 c 0.54346,13.75577 11.55785,17.2093 20.49861,13.7928 8.94076,-3.41643 21.16165,-9.11177 18.70053,-23.9559 -2.46114,-14.84419 -11.16903,-15.63196 -20.85827,-12.34096 -9.68924,3.29098 -18.88433,8.74831 -18.34087,22.50406 z"
       id="path40-5-6-66"
       sodipodi:nodetypes="zzzzz" />
    <path
       style="fill:#09faff;fill-opacity:1;stroke:none;stroke-width:2.1867px;stroke-linecap:butt;stroke-linejoin:miter;stroke-opacity:1"
       d="m 446.19425,361.7278 c 0.98771,10.48282 8.81428,8.63405 14.15454,7.02138 5.34037,-1.61278 16.22485,-6.91731 15.37487,-18.52023 -0.84995,-11.60285 -10.53729,-10.10632 -15.94311,-8.03791 -5.4059,2.06833 -14.57398,9.05375 -13.5863,19.53676 z"
       id="path1072-6-1-1"
       sodipodi:nodetypes="zzzzz" />
    <path
       style="fill:#000000;fill-opacity:0;stroke:#00010e;stroke-width:2.03778;stroke-linecap:butt;stroke-linejoin:miter;stroke-miterlimit:4;stroke-dasharray:none;stroke-opacity:0.939759"
       d="m 444.82499,357.62531 c 0.86978,13.82207 9.23187,11.9892 14.94361,10.27795 5.71177,-1.71141 17.38836,-7.84508 16.6846,-23.12549 -0.70378,-15.28042 -11.04019,-14.05016 -16.82968,-11.74613 -5.78941,2.3038 -15.66826,10.77162 -14.79853,24.59367 z"
       id="path1072-6-7-3"
       sodipodi:nodetypes="zzzzz" />
    <path
       style="fill:none;stroke:#000000;stroke-width:1.43065px;stroke-linecap:butt;stroke-linejoin:miter;stroke-opacity:1"
       d="m 673.84048,311.28543 c 0.54346,13.75577 11.55785,17.2093 20.49861,13.7928 8.94076,-3.41643 21.16165,-9.11177 18.70053,-23.9559 -2.46114,-14.84419 -11.16903,-15.63196 -20.85827,-12.34096 -9.68924,3.29098 -18.88433,8.74831 -18.34087,22.50406 z"
       id="path40-5-1"
       sodipodi:nodetypes="zzzzz" />
    <path
       style="fill:#09faff;fill-opacity:1;stroke:#09faff;stroke-width:1.19767px;stroke-linecap:butt;stroke-linejoin:miter;stroke-opacity:0"
       d="m 675.43712,313.59267 c 0.48296,10.84769 10.27146,13.57116 18.21716,10.87695 7.94561,-2.69419 18.80632,-7.18548 16.61913,-18.89143 -2.18726,-11.70602 -9.92589,-12.32722 -18.53672,-9.73195 -8.61088,2.59518 -16.78255,6.89877 -16.29957,17.74643 z"
       id="path40-5-6-6-3"
       sodipodi:nodetypes="zzzzz" />
    <path
       style="fill:none;stroke:#000000;stroke-width:1.32311px;stroke-linecap:butt;stroke-linejoin:miter;stroke-opacity:1"
       d="m 266.44745,398.47246 c -4.75557,5.48645 -5.29507,47.89962 3.82657,45.03549 9.1217,-2.86423 43.51639,-15.14198 40.38583,-27.99497 -3.13054,-12.85302 -20.23647,-2.84963 -25.76415,-2.4344 -5.45836,0.41023 -13.20002,-20.66083 -18.44825,-14.60612 z"
       id="path40-0"
       sodipodi:nodetypes="szzss" />
    <path
       style="fill:#09faff;fill-opacity:1;stroke:none;stroke-width:0.864764px;stroke-linecap:butt;stroke-linejoin:miter;stroke-opacity:1"
       d="m 267.66808,413.99686 c -3.43115,3.24826 -3.82036,28.35957 2.76088,26.66384 6.58132,-1.69581 31.39711,-8.96503 29.13841,-16.57481 -2.25871,-7.60978 -14.60062,-1.68712 -18.58887,-1.44129 -3.9382,0.24277 -9.52381,-12.23258 -13.31042,-8.64774 z"
       id="path40-8-5-9"
       sodipodi:nodetypes="szzss" />
  </g>
</svg>
